<svg width="36" height="12" viewBox="0 0 36 12" fill="none" xmlns="http://www.w3.org/2000/svg">
<rect width="36" height="12" fill="#E5E5E5"/>
<path d="M1.54688 5.22656L5.21484 6.70898V7.85742L0.421875 5.63672V4.78125L5.21484 2.56641V3.71484L1.54688 5.22656ZM26.0215 9.73242H25.0898L28.6523 0.46875H29.5781L26.0215 9.73242ZM34.5879 5.19141L30.7148 3.67383V2.56055L35.7188 4.77539V5.63086L30.7148 7.85156V6.72656L34.5879 5.19141Z" fill="#E9D946"/>
<path d="M9.64453 5.77734C9.64453 4.78906 9.87305 4.00391 10.3301 3.42188C10.7871 2.83594 11.3926 2.54297 12.1465 2.54297C12.9199 2.54297 13.5234 2.81641 13.957 3.36328L14.0098 2.66016H15V8.84766C15 9.66797 14.7559 10.3145 14.2676 10.7871C13.7832 11.2598 13.1309 11.4961 12.3105 11.4961C11.8535 11.4961 11.4062 11.3984 10.9688 11.2031C10.5312 11.0078 10.1973 10.7402 9.9668 10.4004L10.5293 9.75C10.9941 10.3242 11.5625 10.6113 12.2344 10.6113C12.7617 10.6113 13.1719 10.4629 13.4648 10.166C13.7617 9.86914 13.9102 9.45117 13.9102 8.91211V8.36719C13.4766 8.86719 12.8848 9.11719 12.1348 9.11719C11.3926 9.11719 10.791 8.81836 10.3301 8.2207C9.87305 7.62305 9.64453 6.80859 9.64453 5.77734ZM10.7344 5.90039C10.7344 6.61523 10.8809 7.17773 11.1738 7.58789C11.4668 7.99414 11.877 8.19727 12.4043 8.19727C13.0879 8.19727 13.5898 7.88672 13.9102 7.26562V4.37109C13.5781 3.76562 13.0801 3.46289 12.416 3.46289C11.8887 3.46289 11.4766 3.66797 11.1797 4.07812C10.8828 4.48828 10.7344 5.0957 10.7344 5.90039ZM20.332 7.31836C20.332 7.02539 20.2207 6.79883 19.998 6.63867C19.7793 6.47461 19.3945 6.33398 18.8438 6.2168C18.2969 6.09961 17.8613 5.95898 17.5371 5.79492C17.2168 5.63086 16.9785 5.43555 16.8223 5.20898C16.6699 4.98242 16.5938 4.71289 16.5938 4.40039C16.5938 3.88086 16.8125 3.44141 17.25 3.08203C17.6914 2.72266 18.2539 2.54297 18.9375 2.54297C19.6562 2.54297 20.2383 2.72852 20.6836 3.09961C21.1328 3.4707 21.3574 3.94531 21.3574 4.52344H20.2676C20.2676 4.22656 20.1406 3.9707 19.8867 3.75586C19.6367 3.54102 19.3203 3.43359 18.9375 3.43359C18.543 3.43359 18.2344 3.51953 18.0117 3.69141C17.7891 3.86328 17.6777 4.08789 17.6777 4.36523C17.6777 4.62695 17.7812 4.82422 17.9883 4.95703C18.1953 5.08984 18.5684 5.2168 19.1074 5.33789C19.6504 5.45898 20.0898 5.60352 20.4258 5.77148C20.7617 5.93945 21.0098 6.14258 21.1699 6.38086C21.334 6.61523 21.416 6.90234 21.416 7.24219C21.416 7.80859 21.1895 8.26367 20.7363 8.60742C20.2832 8.94727 19.6953 9.11719 18.9727 9.11719C18.4648 9.11719 18.0156 9.02734 17.625 8.84766C17.2344 8.66797 16.9277 8.41797 16.7051 8.09766C16.4863 7.77344 16.377 7.42383 16.377 7.04883H17.4609C17.4805 7.41211 17.625 7.70117 17.8945 7.91602C18.168 8.12695 18.5273 8.23242 18.9727 8.23242C19.3828 8.23242 19.7109 8.15039 19.957 7.98633C20.207 7.81836 20.332 7.5957 20.332 7.31836Z" fill="black"/>
</svg>
